<?xml version="1.0" encoding="UTF-8" standalone="no"?>
<!-- Created with Inkscape (http://www.inkscape.org/) -->

<svg
   xmlns:dc="http://purl.org/dc/elements/1.1/"
   xmlns:cc="http://creativecommons.org/ns#"
   xmlns:rdf="http://www.w3.org/1999/02/22-rdf-syntax-ns#"
   xmlns:svg="http://www.w3.org/2000/svg"
   xmlns="http://www.w3.org/2000/svg"
   xmlns:sodipodi="http://sodipodi.sourceforge.net/DTD/sodipodi-0.dtd"
   xmlns:inkscape="http://www.inkscape.org/namespaces/inkscape"
   width="92.125984"
   version="1.1"
   height="205.33464"
   id="svg2"
   
   >
  <defs
     id="defs4">
    <marker
       orient="auto"
       markerHeight="8.71875"
       markerWidth="17.0625"
       id="marker3090">
      <rect
         width="16.715418"
         x="-8.3577089"
         y="-4.1788545"
         height="8.3577089"
         style="fill:#000000;stroke:#000000;stroke-width:0.35433072;stroke-miterlimit:4;stroke-opacity:1;stroke-dasharray:none"
         id="rect3088" />
    </marker>
  </defs>
  <sodipodi:namedview
     showgrid="false"
     pagecolor="#ffffff"
     units="mm"
     bordercolor="#666666"
     id="base"
     borderopacity="1.0"
     
     
     
     
     
     
     
     
     >
    <inkscape:grid
       empspacing="5"
       snapvisiblegridlinesonly="true"
       enabled="true"
       visible="true"
       type="xygrid"
       id="grid4309" />
  </sodipodi:namedview>
  <metadata
     id="metadata7">
    <rdf:RDF>
      <cc:Work
         rdf:about="">
        <dc:format>image/svg+xml</dc:format>
        <dc:type
           rdf:resource="http://purl.org/dc/dcmitype/StillImage" />
        <dc:title />
      </cc:Work>
    </rdf:RDF>
  </metadata>
  <rect
     width="76.6063"
     x="-76.543793"
     y="18.340611"
     height="56.161419"
     style="fill:none;stroke:#000000;stroke-width:0.35433072;stroke-miterlimit:4;stroke-opacity:1;stroke-dasharray:none"
     id="rect4405"
     transform="matrix(0,-1,1,0,0,0)" />
  <rect
     width="24.80315"
     x="-205.15747"
     y="0.24362639"
     height="92.125984"
     style="fill:none;stroke:#000000;stroke-width:0.35433072;stroke-miterlimit:4;stroke-opacity:1;stroke-dasharray:none"
     id="rect4419"
     transform="matrix(0,-1,1,0,0,0)" />
  <g
     id="g4680"
     transform="matrix(0,-0.89105135,1,0,-1008.146,231.46158)"
     style="fill:none" />
  <g
     id="g4534-2-6"
     transform="matrix(0,-1,1,0,-940.06079,168.7909)" />
  <g
     id="g4680-5-5"
     transform="translate(1.31179,-1043.3677)" />
  <g
     id="g4680-5-5-2"
     transform="translate(-11.27329,-1041.5352)" />
  <g
     id="g4680-5-5-21"
     transform="translate(-5.0504,-1038.3832)" />
  <path
     style="fill:none;stroke:#000000;stroke-width:0.35433072;stroke-miterlimit:4;stroke-opacity:1;stroke-dasharray:none"
     id="path3871-6-6-2-6"
     d="m 71.475905,161.48661 c 0,5.77289 4.6959,10.46875 10.4688,10.46875 5.7729,0 10.4375,-4.69586 10.4375,-10.46875 0,-5.7729 -4.6646,-10.4375 -10.4375,-10.4375 -5.7729,0 -10.4688,4.6646 -10.4688,10.4375 z m 3.5626,0 c 0,-3.81599 3.0902,-6.90625 6.9062,-6.90625 3.816,0 6.9062,3.09026 6.9062,6.90625 0,3.81598 -3.0902,6.90625 -6.9062,6.90625 -3.816,0 -6.9062,-3.09027 -6.9062,-6.90625 z"
      />
  <path
     style="fill:none;stroke:#000000;stroke-width:0.35433072;stroke-miterlimit:4;stroke-opacity:1;stroke-dasharray:none"
     id="path3871-6-6-2-6-7"
     d="m 0.4227654,161.47839 c 0,5.7729 4.6959,10.46875 10.4687996,10.46875 5.7729,0 10.4375,-4.69585 10.4375,-10.46875 0,-5.77289 -4.6646,-10.4375 -10.4375,-10.4375 -5.7728996,0 -10.4687996,4.66461 -10.4687996,10.4375 z m 3.5626,0 c 0,-3.81598 3.0902,-6.90625 6.9061996,-6.90625 3.816,0 6.9062,3.09027 6.9062,6.90625 0,3.81599 -3.0902,6.90625 -6.9062,6.90625 -3.8159996,0 -6.9061996,-3.09026 -6.9061996,-6.90625 z"
      />
  <path
     style="fill:none;stroke:#000000;stroke-width:0.35433072;stroke-miterlimit:4;stroke-opacity:1;stroke-dasharray:none"
     id="path3871-6-6-2-6-7-1-7"
     d="m 81.864705,22.881068 c 0,5.76233 4.6791,10.45159 10.4375,10.46875 l 0,-3.5625 c -3.8017,-0.0167 -6.875,-3.10061 -6.875,-6.90625 0,-3.80563 3.0733,-6.88955 6.875,-6.90625 l 0,-3.53125 c -5.7584,0.0171 -10.4375,4.67519 -10.4375,10.4375 z"
      />
  <path
     style="fill:none;stroke:#000000;stroke-width:0.35433072;stroke-miterlimit:4;stroke-opacity:1;stroke-dasharray:none"
     id="path3871-6-6-2-6-7-1-7-0"
     d="m 10.614665,22.916728 c 0,-5.76234 -4.6790996,-10.45159 -10.43749964,-10.46875 l 0,3.5625 c 3.80169004,0.0167 6.87500004,3.1006 6.87500004,6.90625 0,3.80563 -3.07331,6.88955 -6.87500004,6.90625 l 0,3.53125 C 5.9355654,33.337128 10.614665,28.679038 10.614665,22.916728 z"
      />
  <g
     id="g3649"
     transform="matrix(1,0,0,0.67307693,-37.957025,-537.83812)">
    <rect
       width="1"
       x="56"
       y="1073.2936"
       height="13"
       style="fill:#000000;fill-opacity:1;stroke:none"
       id="rect3464" />
    <rect
       width="1"
       x="58"
       y="1073.2936"
       height="13"
       style="fill:#000000;fill-opacity:1;stroke:none"
       id="rect3464-2" />
    <rect
       width="1"
       x="59.5"
       y="1073.2936"
       height="13"
       style="fill:#000000;fill-opacity:1;stroke:none"
       id="rect3464-4" />
    <rect
       width="1"
       x="61.5"
       y="1073.2936"
       height="13"
       style="fill:#000000;fill-opacity:1;stroke:none"
       id="rect3464-2-5" />
    <rect
       width="1"
       x="63.12965"
       y="1073.2936"
       height="13"
       style="fill:#000000;fill-opacity:1;stroke:none"
       id="rect3464-5" />
    <rect
       width="1"
       x="65.129646"
       y="1073.2936"
       height="13"
       style="fill:#000000;fill-opacity:1;stroke:none"
       id="rect3464-2-1" />
    <rect
       width="0.29289323"
       x="66.629646"
       y="1073.2936"
       height="13"
       style="fill:#000000;fill-opacity:1;stroke:none"
       id="rect3464-4-7" />
    <rect
       width="1.8838835"
       x="67.745766"
       y="1073.2936"
       height="13"
       style="fill:#000000;fill-opacity:1;stroke:none"
       id="rect3464-2-5-1" />
    <rect
       width="1.5303301"
       x="70.348206"
       y="1073.2936"
       height="13"
       style="fill:#000000;fill-opacity:1;stroke:none"
       id="rect3464-1" />
    <rect
       width="1"
       x="72.348206"
       y="1073.2936"
       height="13"
       style="fill:#000000;fill-opacity:1;stroke:none"
       id="rect3464-2-52" />
    <rect
       width="1"
       x="73.848206"
       y="1073.2936"
       height="13"
       style="fill:#000000;fill-opacity:1;stroke:none"
       id="rect3464-4-76" />
    <rect
       width="1.2651651"
       x="75.583038"
       y="1073.2936"
       height="13"
       style="fill:#000000;fill-opacity:1;stroke:none"
       id="rect3464-2-5-14" />
    <rect
       width="1"
       x="77.477852"
       y="1073.2936"
       height="13"
       style="fill:#000000;fill-opacity:1;stroke:none"
       id="rect3464-5-2" />
    <rect
       width="1"
       x="79.477852"
       y="1073.2936"
       height="13"
       style="fill:#000000;fill-opacity:1;stroke:none"
       id="rect3464-2-1-3" />
    <rect
       width="1.7954952"
       x="80.977852"
       y="1073.2936"
       height="13"
       style="fill:#000000;fill-opacity:1;stroke:none"
       id="rect3464-4-7-2" />
    <rect
       width="1"
       x="82.977852"
       y="1073.2936"
       height="13"
       style="fill:#000000;fill-opacity:1;stroke:none"
       id="rect3464-2-5-1-2" />
    <rect
       width="1"
       x="84.490341"
       y="1073.2936"
       height="13"
       style="fill:#000000;fill-opacity:1;stroke:none"
       id="rect3464-1-1" />
    <rect
       width="1.5303301"
       x="85.960014"
       y="1073.2936"
       height="13"
       style="fill:#000000;fill-opacity:1;stroke:none"
       id="rect3464-2-52-6" />
    <rect
       width="1"
       x="87.990341"
       y="1073.2936"
       height="13"
       style="fill:#000000;fill-opacity:1;stroke:none"
       id="rect3464-4-76-8" />
    <rect
       width="1"
       x="89.990341"
       y="1073.2936"
       height="13"
       style="fill:#000000;fill-opacity:1;stroke:none"
       id="rect3464-2-5-14-5" />
    <rect
       width="1.5303301"
       x="91.619987"
       y="1073.2936"
       height="13"
       style="fill:#000000;fill-opacity:1;stroke:none"
       id="rect3464-5-2-7" />
    <rect
       width="1"
       x="93.619987"
       y="1073.2936"
       height="13"
       style="fill:#000000;fill-opacity:1;stroke:none"
       id="rect3464-2-1-3-6" />
    <rect
       width="1.6187184"
       x="95.119987"
       y="1073.2936"
       height="13"
       style="fill:#000000;fill-opacity:1;stroke:none"
       id="rect3464-4-7-2-1" />
    <rect
       width="1"
       x="97.119987"
       y="1073.2936"
       height="13"
       style="fill:#000000;fill-opacity:1;stroke:none"
       id="rect3464-2-5-1-2-8" />
    <rect
       width="0.82322335"
       x="98.897644"
       y="1073.2936"
       height="13"
       style="fill:#000000;fill-opacity:1;stroke:none"
       id="rect3464-1-1-9" />
    <rect
       width="1.5303301"
       x="100.36731"
       y="1073.2936"
       height="13"
       style="fill:#000000;fill-opacity:1;stroke:none"
       id="rect3464-2-52-6-2" />
    <rect
       width="1.6187184"
       x="102.39764"
       y="1073.2936"
       height="13"
       style="fill:#000000;fill-opacity:1;stroke:none"
       id="rect3464-4-76-8-7" />
    <rect
       width="1"
       x="104.39764"
       y="1073.2936"
       height="13"
       style="fill:#000000;fill-opacity:1;stroke:none"
       id="rect3464-2-5-14-5-9" />
    <rect
       width="0.46966991"
       x="106.02729"
       y="1073.2936"
       height="13"
       style="fill:#000000;fill-opacity:1;stroke:none"
       id="rect3464-5-2-7-5" />
    <rect
       width="1.7071068"
       x="107.32018"
       y="1073.2936"
       height="13"
       style="fill:#000000;fill-opacity:1;stroke:none"
       id="rect3464-2-1-3-6-4" />
    <rect
       width="1"
       x="109.52729"
       y="1073.2936"
       height="13"
       style="fill:#000000;fill-opacity:1;stroke:none"
       id="rect3464-4-7-2-1-3" />
    <rect
       width="1"
       x="111.52729"
       y="1073.2936"
       height="13"
       style="fill:#000000;fill-opacity:1;stroke:none"
       id="rect3464-2-5-1-2-8-1" />
  </g>
  <g
     style="font-size:14px;font-style:normal;font-variant:normal;font-weight:bold;font-stretch:normal;text-align:start;line-height:125%;letter-spacing:0px;word-spacing:0px;writing-mode:lr-tb;text-anchor:start;fill:#000000;fill-opacity:1;stroke:none;font-family:Droid Sans;-inkscape-font-specification:Sans Bold"
     id="text3416-8"
     xml:space="preserve"
     transform="translate(-959.8154,205.33464)">
    <text
   x="979.84418"
   y="-4.2968764"
   style="font-size:6px;font-weight:bold;fill:#000000;-inkscape-font-specification:Droid Sans Bold"
   id="tspan3418-8">00:08:DC:XX:XX:XX</text>






   </g>  <g
     style="font-size:14px;font-style:normal;font-variant:normal;font-weight:bold;font-stretch:normal;text-align:start;line-height:125%;letter-spacing:0px;word-spacing:0px;writing-mode:lr-tb;text-anchor:start;fill:#000000;fill-opacity:1;stroke:none;font-family:Droid Sans;-inkscape-font-specification:Sans Bold"
     id="text3416"
     xml:space="preserve"
     transform="matrix(0,-1,1,0,-959.8154,205.33464)">
    <text
   x="122"
   y="1048.8622"
   style="font-size:6px;font-weight:bold;fill:#000000;-inkscape-font-specification:Droid Sans Bold"
   id="tspan3418">WIZ550io Ver1.1</text>






   </g>  <g
     id="g3061">
    <rect
       style="fill:none;stroke:#ffbf00;stroke-width:1.43999994"
       width="3.96"
       x="3.5829942"
       y="79.551491"
       height="3.96"
       id="rect15924-4" />
    <circle
       transform="matrix(1.25,0,0,1.25,0.16299187,76.131491)"
       style="fill:none;stroke:#ffbf00;stroke-width:1.15199995"
       
       
       
       
       d="m 5.9040002,4.3200002 c 0,0.874819 -0.709181,1.584 -1.584,1.584 -0.8748191,0 -1.584,-0.709181 -1.584,-1.584 0,-0.8748191 0.7091809,-1.584 1.584,-1.584 0.874819,0 1.584,0.7091809 1.584,1.584 z"
       cx="4.3200002"
       cy="4.3200002"
       id="connector0pad-0"
       r="1.584" />
    <circle
       transform="matrix(1.25,0,0,1.25,0.16299187,76.13149)"
       style="fill:none;stroke:#ffbf00;stroke-width:1.15199995"
       
       
       
       
       d="m 5.9040002,11.52 c 0,0.874819 -0.709181,1.584 -1.584,1.584 -0.8748191,0 -1.584,-0.709181 -1.584,-1.584 0,-0.874819 0.7091809,-1.5839995 1.584,-1.5839995 0.874819,0 1.584,0.7091805 1.584,1.5839995 z"
       cx="4.3200002"
       cy="11.52"
       id="connector1pad-9"
       r="1.584" />
    <circle
       transform="matrix(1.25,0,0,1.25,0.16299187,76.131492)"
       style="fill:none;stroke:#ffbf00;stroke-width:1.15199995"
       
       
       
       
       d="m 5.9040002,18.719999 c 0,0.874819 -0.709181,1.584 -1.584,1.584 -0.8748191,0 -1.584,-0.709181 -1.584,-1.584 0,-0.874819 0.7091809,-1.584 1.584,-1.584 0.874819,0 1.584,0.709181 1.584,1.584 z"
       cx="4.3200002"
       cy="18.719999"
       id="connector2pad-4"
       r="1.584" />
    <circle
       transform="matrix(1.25,0,0,1.25,0.16299187,76.131491)"
       style="fill:none;stroke:#ffbf00;stroke-width:1.15199995"
       
       
       
       
       d="m 5.9040002,25.92 c 0,0.874819 -0.709181,1.584 -1.584,1.584 -0.8748191,0 -1.584,-0.709181 -1.584,-1.584 0,-0.874819 0.7091809,-1.584 1.584,-1.584 0.874819,0 1.584,0.709181 1.584,1.584 z"
       cx="4.3200002"
       cy="25.92"
       id="connector3pad-8"
       r="1.584" />
    <circle
       transform="matrix(1.25,0,0,1.25,0.16299187,103.13149)"
       style="fill:none;stroke:#ffbf00;stroke-width:1.15199995"
       
       
       
       
       d="m 5.9040002,11.52 c 0,0.874819 -0.709181,1.584 -1.584,1.584 -0.8748191,0 -1.584,-0.709181 -1.584,-1.584 0,-0.874819 0.7091809,-1.5839995 1.584,-1.5839995 0.874819,0 1.584,0.7091805 1.584,1.5839995 z"
       cx="4.3200002"
       cy="11.52"
       id="connector1pad-9-8"
       r="1.584" />
    <circle
       transform="matrix(1.25,0,0,1.25,0.16299187,103.13149)"
       style="fill:none;stroke:#ffbf00;stroke-width:1.15199995"
       
       
       
       
       d="m 5.9040002,18.719999 c 0,0.874819 -0.709181,1.584 -1.584,1.584 -0.8748191,0 -1.584,-0.709181 -1.584,-1.584 0,-0.874819 0.7091809,-1.584 1.584,-1.584 0.874819,0 1.584,0.709181 1.584,1.584 z"
       cx="4.3200002"
       cy="18.719999"
       id="connector2pad-4-2"
       r="1.584" />
    <circle
       transform="matrix(1.25,0,0,1.25,0.16299187,103.13149)"
       style="fill:none;stroke:#ffbf00;stroke-width:1.15199995"
       
       
       
       
       d="m 5.9040002,25.92 c 0,0.874819 -0.709181,1.584 -1.584,1.584 -0.8748191,0 -1.584,-0.709181 -1.584,-1.584 0,-0.874819 0.7091809,-1.584 1.584,-1.584 0.874819,0 1.584,0.709181 1.584,1.584 z"
       cx="4.3200002"
       cy="25.92"
       id="connector3pad-8-4"
       r="1.584" />
    <circle
       transform="matrix(1.25,0,0,1.25,0.16299187,112.13149)"
       style="fill:none;stroke:#ffbf00;stroke-width:1.15199995"
       
       
       
       
       d="m 5.9040002,25.92 c 0,0.874819 -0.709181,1.584 -1.584,1.584 -0.8748191,0 -1.584,-0.709181 -1.584,-1.584 0,-0.874819 0.7091809,-1.584 1.584,-1.584 0.874819,0 1.584,0.709181 1.584,1.584 z"
       cx="4.3200002"
       cy="25.92"
       id="connector3pad-8-4-5"
       r="1.584" />
  </g>
  <g
     id="g3146"
     transform="translate(-14.951539,-1.9523482)">
    <rect
       style="fill:none;stroke:#ffbf00;stroke-width:1.43999994"
       width="3.96"
       x="99.534531"
       y="90.503838"
       height="3.96"
       id="rect15924-4-7" />
    <circle
       transform="matrix(1.25,0,0,1.25,96.114532,87.083839)"
       style="fill:none;stroke:#ffbf00;stroke-width:1.15199995"
       
       
       
       
       d="m 5.9040002,4.3200002 c 0,0.874819 -0.709181,1.584 -1.584,1.584 -0.8748191,0 -1.584,-0.709181 -1.584,-1.584 0,-0.8748191 0.7091809,-1.584 1.584,-1.584 0.874819,0 1.584,0.7091809 1.584,1.584 z"
       cx="4.3200002"
       cy="4.3200002"
       id="connector0pad-0-4"
       r="1.584" />
    <circle
       transform="matrix(1.25,0,0,1.25,96.114532,87.083838)"
       style="fill:none;stroke:#ffbf00;stroke-width:1.15199995"
       
       
       
       
       d="m 5.9040002,11.52 c 0,0.874819 -0.709181,1.584 -1.584,1.584 -0.8748191,0 -1.584,-0.709181 -1.584,-1.584 0,-0.874819 0.7091809,-1.5839995 1.584,-1.5839995 0.874819,0 1.584,0.7091805 1.584,1.5839995 z"
       cx="4.3200002"
       cy="11.52"
       id="connector1pad-9-0"
       r="1.584" />
    <circle
       transform="matrix(1.25,0,0,1.25,96.114532,87.08384)"
       style="fill:none;stroke:#ffbf00;stroke-width:1.15199995"
       
       
       
       
       d="m 5.9040002,18.719999 c 0,0.874819 -0.709181,1.584 -1.584,1.584 -0.8748191,0 -1.584,-0.709181 -1.584,-1.584 0,-0.874819 0.7091809,-1.584 1.584,-1.584 0.874819,0 1.584,0.709181 1.584,1.584 z"
       cx="4.3200002"
       cy="18.719999"
       id="connector2pad-4-9"
       r="1.584" />
    <circle
       transform="matrix(1.25,0,0,1.25,96.114532,87.083839)"
       style="fill:none;stroke:#ffbf00;stroke-width:1.15199995"
       
       
       
       
       d="m 5.9040002,25.92 c 0,0.874819 -0.709181,1.584 -1.584,1.584 -0.8748191,0 -1.584,-0.709181 -1.584,-1.584 0,-0.874819 0.7091809,-1.584 1.584,-1.584 0.874819,0 1.584,0.709181 1.584,1.584 z"
       cx="4.3200002"
       cy="25.92"
       id="connector3pad-8-48"
       r="1.584" />
    <circle
       transform="matrix(1.25,0,0,1.25,96.114532,114.08384)"
       style="fill:none;stroke:#ffbf00;stroke-width:1.15199995"
       
       
       
       
       d="m 5.9040002,11.52 c 0,0.874819 -0.709181,1.584 -1.584,1.584 -0.8748191,0 -1.584,-0.709181 -1.584,-1.584 0,-0.874819 0.7091809,-1.5839995 1.584,-1.5839995 0.874819,0 1.584,0.7091805 1.584,1.5839995 z"
       cx="4.3200002"
       cy="11.52"
       id="connector1pad-9-8-8"
       r="1.584" />
    <circle
       transform="matrix(1.25,0,0,1.25,96.114532,114.08384)"
       style="fill:none;stroke:#ffbf00;stroke-width:1.15199995"
       
       
       
       
       d="m 5.9040002,18.719999 c 0,0.874819 -0.709181,1.584 -1.584,1.584 -0.8748191,0 -1.584,-0.709181 -1.584,-1.584 0,-0.874819 0.7091809,-1.584 1.584,-1.584 0.874819,0 1.584,0.709181 1.584,1.584 z"
       cx="4.3200002"
       cy="18.719999"
       id="connector2pad-4-2-2"
       r="1.584" />
  </g>
  <path
     style="fill:none;stroke:#000000;stroke-width:0.35383019;stroke-linecap:butt;stroke-linejoin:miter;stroke-miterlimit:4;stroke-opacity:1;stroke-dasharray:none"
     d="M 0.17691509,10.275835 91.949069,9.9658198"
     id="path3155"
      />
</svg>
